# xmcd
#
# Track frame offsets:
#	150
#	17777
#	23414
#	36110
#	41867
#	64709
#	87064
#	107554
#	118291
#	128911
#	143476
#	169332
#	203965
#	224345
#	248867
#	267198
#	275269
#	289414
#
# Disc length: 4161 seconds
#
# Revision: 0
# Processed by: cddbd v1.5.2PL0 Copyright (c) Steve Scherf et al.
# Submitted via: audiograbber 1.83.01
#
DISCID=0a103f12
DTITLE=Benjamin-Malo-Scène - Chrysalide
DYEAR=2011
DGENRE=Celtic
TTITLE0=Si Tu Veux (Loudia)
TTITLE1=J'veux Bien (Baleu)
TTITLE2=Tant Mieux (Loudia)
TTITLE3=On N'a Qu'à D'faire Comme ça à ç'moment-Là (Riquegnée)
TTITLE4=La Pourlette Coquette (Gavotte)
TTITLE5=Verve Haine M'hantent (Hanter Dro)
TTITLE6=Nuts - Bohemie (St Vincent)
TTITLE7=Plinn Le Jeune (Ton Simpl)
TTITLE8=Plinn Le Jeune (Bal)
TTITLE9=Plinn Le Jeune (Ton Doubl)
TTITLE10=Saint-Jacques, Toull Ar Re Zu (Kas Ha Bac'h)
TTITLE11=La Plume De Fonte - Blev (Valse)
TTITLE12=Zofil - Les Yeux Rouges (An Dro)
TTITLE13=Le Cul De L'enfer - Je Ne Sais Pas - L'ellipse Troyenne
TTITLE14=Plinn L'ancien (Ton Simpl)
TTITLE15=Plinn L'ancien (Bal)
TTITLE16=Plinn L'ancien (Ton Doubl)
TTITLE17=Kemehe (Kost Ar C'hoat)
EXTD=
EXTT0=
EXTT1=
EXTT2=
EXTT3=
EXTT4=
EXTT5=
EXTT6=
EXTT7=
EXTT8=
EXTT9=
EXTT10=
EXTT11=
EXTT12=
EXTT13=
EXTT14=
EXTT15=
EXTT16=
EXTT17=
PLAYORDER=
